<?xml version="1.0" encoding="UTF-8" standalone="no"?>
<!-- Created with Inkscape (http://www.inkscape.org/) -->

<svg
   width="64"
   height="64"
   viewBox="0 0 16.933332 16.933332"
   version="1.1"
   id="svg5"
   inkscape:version="1.1 (c68e22c387, 2021-05-23)"
   sodipodi:docname="cpp.svg"
   xmlns:inkscape="http://www.inkscape.org/namespaces/inkscape"
   xmlns:sodipodi="http://sodipodi.sourceforge.net/DTD/sodipodi-0.dtd"
   xmlns="http://www.w3.org/2000/svg"
   xmlns:svg="http://www.w3.org/2000/svg">
  <sodipodi:namedview
     id="namedview7"
     pagecolor="#ffffff"
     bordercolor="#666666"
     borderopacity="1.0"
     inkscape:pageshadow="2"
     inkscape:pageopacity="0.0"
     inkscape:pagecheckerboard="0"
     inkscape:document-units="px"
     showgrid="true"
     width="512mm"
     units="px"
     inkscape:zoom="2.56"
     inkscape:cx="16.210938"
     inkscape:cy="27.929688"
     inkscape:window-width="1080"
     inkscape:window-height="658"
     inkscape:window-x="-6"
     inkscape:window-y="-6"
     inkscape:window-maximized="1"
     inkscape:current-layer="layer1">
    <inkscape:grid
       type="xygrid"
       id="grid9" />
  </sodipodi:namedview>
  <defs
     id="defs2" />
  <g
     inkscape:label="图层 1"
     inkscape:groupmode="layer"
     id="layer1">
    <path
       style="fill:#66ccff;fill-opacity:1;stroke:none;stroke-width:0.0350021px;stroke-linecap:butt;stroke-linejoin:miter;stroke-opacity:1"
       d="m 14.000867,4.2002602 c 0,0 0,-1.4000868 -1.400086,-1.4000868 -1.400087,0 -7.000434,0 -7.000434,0 0,0 -1.4000868,0 -1.4000868,1.4000868 0,1.4000868 0,8.4005208 0,8.4005208 0,0 0,1.400086 1.4000868,1.400086 1.4000864,0 7.000434,0 7.000434,0 0,0 1.400086,0 1.400086,-1.400086 0,-1.400087 0,-0.700044 0,-0.700044 0,0 0,-0.700043 -0.700043,-0.700043 -0.700043,0 -0.700043,0 -0.700043,0 0,0 -0.350022,0 -0.350022,0.350022 0,0.350021 0,0.700043 -0.350022,0.700043 -0.350021,0 -5.6003468,0 -5.6003468,0 0,0 -0.3500219,0 -0.3500219,-0.350022 0,-0.350021 0,-7.0004335 0,-7.0004335 0,0 0,-0.3500217 0.3500219,-0.3500217 0.3500218,0 7.3504558,0 7.3504558,0 0,0 0.350021,0 0.350021,-0.3500216 z"
       id="path44" />
    <path
       style="fill:#66ccff;fill-opacity:1;stroke:none;stroke-width:0.0350021px;stroke-linecap:butt;stroke-linejoin:miter;stroke-opacity:1"
       d="m 11.200694,7.3504552 h 0.350022 0.700043 c 0,0 0.350022,0 0.350022,-0.3500218 0,-0.3500214 0,-1.0500651 0,-1.0500651 0,0 0,-0.3500213 0.350021,-0.3500213 0.350022,0 0.350022,0.3500213 0.350022,0.3500213 v 1.0500651 c 0,0 0,0.3500218 0.350022,0.3500218 0.350021,0 1.050065,0 1.050065,0 0,0 0.350021,0 0.350021,0.3500219 0,0.3500213 -0.350021,0.3500213 -0.350021,0.3500213 h -1.050065 c 0,0 -0.350022,0 -0.350022,0.3500219 0,0.3500217 0,1.0500649 0,1.0500649 0,0 0,0.3500219 -0.350022,0.3500219 -0.350021,0 -0.350021,-0.3500219 -0.350021,-0.3500219 V 8.4005203 c 0,0 0,-0.3500219 -0.350022,-0.3500219 -0.350022,0 -1.050065,0 -1.050065,0 0,0 -0.350022,0 -0.350022,-0.3500213 0,-0.3500219 0.350022,-0.3500219 0.350022,-0.3500219 z"
       id="path1026" />
    <path
       style="fill:#66ccff;fill-opacity:1;stroke:none;stroke-width:0.0175433px;stroke-linecap:butt;stroke-linejoin:miter;stroke-opacity:1"
       d="m 13.650846,5.9503688 h 0.175434 0.35087 c 0,0 0.175434,0 0.175434,-0.1754351 0,-0.1754342 0,-0.5263039 0,-0.5263039 0,0 0,-0.1754348 0.175435,-0.1754348 0.175435,0 0.175435,0.1754348 0.175435,0.1754348 v 0.5263039 c 0,0 0,0.1754351 0.175435,0.1754351 0.175434,0 0.526304,0 0.526304,0 0,0 0.175435,0 0.175435,0.1754347 0,0.1754347 -0.175435,0.1754347 -0.175435,0.1754347 h -0.526304 c 0,0 -0.175435,0 -0.175435,0.1754346 0,0.1754347 0,0.5263046 0,0.5263046 0,0 0,0.1754346 -0.175435,0.1754346 -0.175435,0 -0.175435,-0.1754346 -0.175435,-0.1754346 V 6.4766728 c 0,0 0,-0.1754346 -0.175434,-0.1754346 -0.175435,0 -0.526304,0 -0.526304,0 0,0 -0.175435,0 -0.175435,-0.1754347 0,-0.1754347 0.175435,-0.1754347 0.175435,-0.1754347 z"
       id="path1028" />
    <rect
       style="fill:none;fill-opacity:1;stroke:#666666;stroke-width:0.529167;stroke-linecap:round;stroke-linejoin:round;stroke-miterlimit:4;stroke-dasharray:none;stroke-opacity:1"
       id="rect1284"
       width="16.933332"
       height="16.933332"
       x="0"
       y="0"
       rx="2.5069997" />
  </g>
</svg>
